<?xml version="1.0" encoding="UTF-8" standalone="no"?>
<!-- Created with Inkscape (http://www.inkscape.org/) -->

<svg
   version="1.1"
   id="svg1"
   width="800"
   height="800"
   viewBox="0 0 800 800"
   sodipodi:docname="logo_icon.svg"
   inkscape:version="1.4.2 (ebf0e940, 2025-05-08)"
   xml:space="preserve"
   xmlns:inkscape="http://www.inkscape.org/namespaces/inkscape"
   xmlns:sodipodi="http://sodipodi.sourceforge.net/DTD/sodipodi-0.dtd"
   xmlns="http://www.w3.org/2000/svg"
   xmlns:svg="http://www.w3.org/2000/svg"><defs
     id="defs1"><clipPath
       clipPathUnits="userSpaceOnUse"
       id="clipPath5"><rect
         style="fill:#000000;stroke:#000000;stroke-width:0;stroke-linejoin:bevel;paint-order:stroke markers fill;stop-color:#000000"
         id="rect5-4"
         width="20"
         height="200"
         x="530"
         y="595" /></clipPath><clipPath
       clipPathUnits="userSpaceOnUse"
       id="clipPath52"><path
         id="path52"
         style="stroke-width:0.1;stroke-linecap:square;paint-order:markers fill stroke;stop-color:#000000"
         d="m -880.82767,-187.29769 h 1640.84 v 73.28155 h -1640.84 z" /></clipPath><inkscape:path-effect
       effect="attach_path"
       id="path-effect74"
       is_visible="true"
       lpeversion="1"
       startpath=""
       startposition="0"
       startcurvestart="0,0 , 20,0"
       startcurveend="0,0 , 20,0"
       endpath=""
       endposition="0"
       endcurvestart="0,0 , 20,0"
       endcurveend="0,0 , 20,0" /><inkscape:path-effect
       effect="gears"
       id="path-effect73"
       is_visible="true"
       lpeversion="1"
       teeth="10"
       phi="5"
       min_radius="5" /><inkscape:path-effect
       effect="ruler"
       id="path-effect72"
       is_visible="true"
       lpeversion="1.3.1"
       unit="px"
       mark_distance="20"
       mark_angle="0"
       mark_length="14"
       minor_mark_length="7"
       minor_mark_gap="0"
       major_mark_gap="0"
       major_mark_steps="5"
       shift="0"
       offset="0"
       mark_dir="left"
       border_marks="both" /><inkscape:path-effect
       effect="vonkoch"
       id="path-effect71"
       is_visible="true"
       lpeversion="1"
       ref_path="M 393.21484,393.84473 H 668.11523"
       generator="m 393.21484,666.98438 h 91.63346 m 91.63347,0 h 91.63346"
       similar_only="false"
       nbgenerations="1"
       drawall="true"
       maxComplexity="1000" /><inkscape:path-effect
       effect="curvestitching"
       id="path-effect70"
       is_visible="true"
       lpeversion="1"
       count="5"
       startpoint_edge_variation="0;1"
       startpoint_spacing_variation="0;1"
       endpoint_edge_variation="0;1"
       endpoint_spacing_variation="0;1"
       strokepath="M 0,0 H 1"
       prop_scale="1"
       scale_y_rel="false" /><inkscape:path-effect
       effect="skeletal"
       id="path-effect69"
       is_visible="true"
       lpeversion="1"
       pattern="M 0,0 H 1"
       copytype="repeated_stretched"
       prop_scale="1"
       scale_y_rel="false"
       spacing="0"
       normal_offset="0"
       tang_offset="0"
       prop_units="false"
       vertical_pattern="false"
       hide_knot="false"
       fuse_tolerance="0" /><inkscape:path-effect
       effect="knot"
       id="path-effect68"
       is_visible="true"
       lpeversion="1"
       switcher_size="15"
       interruption_width="3"
       prop_to_stroke_width="false"
       add_stroke_width="inkscape_1.0_and_up"
       both="false"
       inverse_width="false"
       add_other_stroke_width="inkscape_1.0_and_up"
       crossing_points_vector="" /></defs><sodipodi:namedview
     id="namedview1"
     pagecolor="#ffffff"
     bordercolor="#000000"
     borderopacity="0.25"
     inkscape:showpageshadow="2"
     inkscape:pageopacity="0.0"
     inkscape:pagecheckerboard="0"
     inkscape:deskcolor="#d1d1d1"
     showgrid="false"
     inkscape:zoom="0.34220582"
     inkscape:cx="391.57721"
     inkscape:cy="485.08818"
     inkscape:window-width="1512"
     inkscape:window-height="835"
     inkscape:window-x="0"
     inkscape:window-y="38"
     inkscape:window-maximized="1"
     inkscape:current-layer="svg1" /><circle
     style="fill:#ffffff;fill-opacity:1;fill-rule:evenodd;stroke:none;stroke-width:3.92979;stroke-dasharray:none;stroke-opacity:1"
     id="path68"
     cx="397.33987"
     cy="402.1528"
     r="392.97931" /><g
     id="g68"
     transform="matrix(1.2693531,0,0,1.2693531,-105.30034,-104.24931)"><g
       id="g64"
       style="fill:#000000;fill-opacity:1"
       transform="matrix(0.97923199,0,0,0.97923199,10.818722,11.528527)"><path
         id="path67"
         style="display:inline;fill:#000000;fill-opacity:1;stroke-width:2.23901"
         d="m 430.13086,227.10352 c 51.36911,13.54698 91.1346,45.91001 115.39453,94.1914 7.07922,14.0893 12.74182,32.65735 16.17188,53.02149 l 1.38085,8.19921 h 51.81836 51.81836 l -1.47461,-18.3164 C 662.50919,330.3116 648.25506,288.17653 628.9043,256.7832 592.62343,197.9236 538.4589,156.00382 470.80078,134.42383 453.31882,128.84794 422.94923,122.5987 405.5957,120.70508 c 13.92623,8.23213 24.49566,19.79997 30.50586,33.82617 2.58179,6.02518 3.30509,9.91129 3.74805,20.13086 0.63671,14.68942 -0.97998,22.48322 -7.81641,37.68359 l -4.39258,9.76563 z" /><path
         id="path65"
         style="display:inline;fill:#000000;fill-opacity:1;stroke-width:2.23901"
         d="m 393.21484,665.01953 v 1.96485 l 14.33008,-1.42188 c 38.62268,-3.83519 71.24758,-13.03502 105.16602,-29.65234 86.69277,-42.47265 144.20186,-123.73435 154.1875,-217.875 l 1.21679,-11.47852 h -52.26367 -52.26367 l -3.82812,18.57813 c -2.10493,10.218 -5.9496,23.74779 -8.54297,30.0664 -18.07603,44.03978 -55.77974,80.04224 -100.20899,98.22071 2.42412,19.63168 1.1578,43.46844 -9.25,67.20898 -8.61356,19.64788 -25.91014,35.254 -48.54297,44.38867 z" /></g><path
       style="fill:#000000;fill-opacity:1;stroke-width:1.13655"
       d="M 326.95983,670.86537 C 301.07243,665.75721 281.72581,651.2617 268.51561,627.076 l -6.2423,-11.42858 -10.18212,-0.71202 c -23.40587,-1.63626 -38.70858,-7.44719 -52.84406,-20.06672 -9.86191,-8.80436 -14.60481,-15.97062 -18.94924,-28.63133 -3.04418,-8.87142 -4.42519,-27.83823 -2.76877,-38.02628 0.8596,-5.28722 0.74778,-7.01583 -0.51498,-7.95928 -3.50306,-2.61709 -12.92294,-16.69483 -16.39007,-24.49441 -3.38341,-7.6113 -3.66019,-9.22622 -3.62978,-21.17972 0.0284,-11.18552 0.48458,-14.1831 3.36404,-22.10617 1.83215,-5.04129 5.22532,-12.43344 7.5404,-16.42702 4.09881,-7.07059 4.16257,-7.36758 2.43096,-11.32265 -0.97802,-2.23394 -3.58918,-10.61267 -5.80253,-18.6194 -3.81291,-13.79302 -4.02528,-15.57722 -4.0433,-33.96797 -0.0223,-22.71189 1.05955,-27.41916 10.21204,-44.43582 5.77153,-10.73069 12.13707,-18.9044 21.77298,-27.95784 l 4.74436,-4.45763 -2.0558,-8.31823 c -2.7789,-11.24406 -1.99221,-29.2872 1.75032,-40.14498 5.65083,-16.39396 18.0279,-29.79115 35.89231,-38.8504 l 6.46373,-3.27787 0.32554,-9.01672 c 1.1483,-31.80602 27.00878,-54.34996 60.14943,-52.43536 l 8.7805,0.50728 3.46253,-4.53033 c 5.58692,-7.30993 16.09357,-15.24963 23.66682,-17.88463 9.24014,-3.21496 31.75524,-4.08129 44.23213,-1.70193 29.11975,5.55316 51.29808,21.75011 61.09783,44.62009 2.52818,5.90005 3.23664,9.70499 3.6704,19.71232 0.62349,14.38435 -0.95967,22.01691 -7.65412,36.9016 l -4.30078,9.56246 3.07801,6.17424 c 9.78675,19.63147 8.99677,37.50866 -2.33743,52.89434 -2.34403,3.18192 -3.99504,6.57874 -3.66892,7.5485 0.32614,0.96966 3.69221,7.76543 7.48018,15.10162 5.92243,11.47002 6.00589,14.5645 7.4546,21.29736 3.91418,18.19155 -1.52078,39.00204 -16.48882,58.57413 -11.0701,14.4752 36.21427,8.78848 8.4143,110.57535 l 5.36448,9.73055 c 8.23209,11.33004 25.705,60.04304 4.5281,108.34824 -10.93928,24.95293 -36.18187,43.2459 -68.57493,49.69552 -12.2677,2.44256 -39.7697,2.71157 -50.98382,0.49869 z m 46.1191,-27.09926 c 19.55073,-3.99791 36.38856,-15.56789 43.87016,-30.14475 7.25054,-14.12678 8.24911,-19.20833 8.14563,-41.45284 -0.0835,-17.9688 -0.40447,-20.99584 -3.23216,-30.48813 -1.72666,-5.79615 -4.25127,-11.94425 -5.61022,-13.66224 -3.36243,-4.25077 -16.89753,-13.25166 -34.18916,-22.7358 -24.94551,-13.68211 -24.73818,-13.44976 -34.09211,-38.20109 -9.38576,-24.83549 -11.24531,-26.80919 -29.99547,-31.83598 -10.0589,-2.69681 -15.03334,-4.74079 -18.56743,-7.62959 -2.31726,-1.8941 -2.63137,-1.88634 -9.58319,0.23735 -6.22161,1.90037 -9.27991,2.12663 -22.76006,1.68428 -16.54623,-0.54303 -24.8343,-2.22713 -31.82169,-6.46598 -4.59273,-2.78621 -9.5058,-8.7979 -9.5058,-11.63138 0,-1.66812 1.03008,-1.4921 8.68474,1.4836 8.0418,3.12614 9.70467,3.37789 22.46061,3.39996 11.65212,0.0184 14.40287,-0.30845 17.84326,-2.13292 5.70065,-3.0227 8.67383,-7.04159 9.37966,-12.6788 0.71415,-5.70364 -2.63101,-19.10277 -5.22159,-20.91505 -1.22553,-0.857 -6.12522,-1.06312 -15.78247,-0.66307 -12.75494,0.52916 -14.59335,0.35925 -20.59366,-1.90435 -20.03212,-7.55607 -37.56158,-25.15667 -39.18859,-39.34761 -0.37248,-3.24878 -1.06106,-5.90689 -1.53019,-5.90689 -0.46915,0 -2.52726,3.27546 -4.57361,7.27883 -9.77567,19.12474 -9.95844,38.40325 -0.65073,68.63289 8.78033,28.51682 28.08849,49.51894 56.12527,61.0493 7.17136,2.94929 25.76436,4.17698 33.79027,2.23117 7.30176,-1.77036 14.8377,-7.36288 18.31831,-13.59446 1.64712,-2.94892 3.17406,-5.60398 3.39322,-5.90015 0.21918,-0.29643 2.03838,1.11374 4.04269,3.13306 3.38505,3.41049 3.59985,4.11151 3.02087,9.85938 -0.98075,9.73644 -9.57059,20.69395 -18.67567,23.82331 l -3.16114,1.0865 3.5937,2.33545 c 7.11486,4.62386 14.02097,10.96248 16.2726,14.93556 2.72286,4.8046 2.9593,12.77291 0.64203,21.63703 l -1.61533,6.17913 4.32932,0.63351 c 9.40539,1.37566 11.64469,1.88488 14.9223,3.39313 1.87304,0.86163 3.51786,1.41009 3.65516,1.2181 0.13728,-0.1921 0.8922,-3.26069 1.67753,-6.81921 0.78533,-3.55861 3.16851,-9.62424 5.29595,-13.47939 l 3.86808,-7.00926 1.53448,10.24427 c 2.03849,13.60906 4.4351,20.66662 9.88536,29.11073 9.93187,15.38742 14.39181,26.74731 15.24293,38.82538 0.6973,9.89521 -0.20809,10.43139 -3.74051,2.2151 -7.15745,-16.6479 -19.89321,-29.75957 -35.48138,-36.52845 -16.69762,-7.25076 -26.91037,-8.44984 -34.41788,-4.04104 -8.40404,4.93527 -32.68103,10.32499 -46.39289,10.29978 -4.71848,-0.009 -4.65106,-0.0646 4.41934,-3.62908 13.37214,-5.25563 19.96698,-8.99571 26.72603,-15.15675 7.93157,-7.22979 11.59393,-14.16129 12.2276,-23.14241 0.84323,-11.95101 -3.33858,-15.71658 -27.56894,-24.82496 -16.79389,-6.31304 -25.37792,-10.49621 -43.26592,-21.08459 -13.24832,-7.84198 -25.85142,-17.70237 -29.6722,-23.21474 l -1.86856,-2.69588 -2.02718,4.31339 c -8.3284,17.72102 -6.8116,30.30131 5.43579,45.08393 10.74462,12.96879 33.8253,22.23713 55.51867,22.2942 l 7.11206,0.0184 -3.28962,3.09094 c -4.57464,4.29845 -14.58013,8.62836 -22.6803,9.81514 -6.29883,0.92258 -13.96362,0.38326 -22.64161,-1.59404 -2.82473,-0.64368 -3.34725,-0.36202 -4.0589,2.1909 -1.32461,4.75095 0.52672,20.47629 3.15518,26.80032 6.60195,15.88436 21.0943,24.60552 43.45984,26.15312 11.05984,0.76558 21.45739,-0.74527 40.85063,-5.93588 6.31101,-1.68898 11.47458,-2.76486 11.47458,-2.39075 0,0.37401 -3.82398,5.26431 -8.49768,10.867 l -8.49771,10.18675 1.42703,4.35107 c 2.52266,7.69154 9.92097,19.11836 16.55367,25.56753 14.66397,14.25817 38.03192,18.91712 66.097,13.17795 z M 411.01926,483.1408 c 2.62889,-8.86403 3.19415,-13.14639 3.26539,-24.73823 0.10812,-17.59616 -2.35259,-26.09956 -13.18395,-45.55908 -4.20938,-7.56262 -7.65422,-14.96326 -7.65519,-16.44604 -9.6e-4,-1.48267 1.59391,-5.3648 3.54414,-8.62677 4.96738,-8.30853 4.84363,-8.62678 -3.35482,-8.62678 -9.22602,0 -24.68648,-3.63303 -30.69644,-7.21335 -7.54407,-4.49422 -13.55558,-10.95447 -18.57483,-19.96144 -4.74171,-8.50884 -5.88708,-12.28615 -9.0435,-29.82422 -2.36016,-13.11396 -5.58159,-19.68097 -12.24413,-24.96024 -5.33318,-4.22603 -15.99287,-8.60738 -21.01741,-8.6387 -5.99883,-0.0369 -6.10265,-1.80783 -0.286,-4.87644 8.84151,-4.6644 17.78473,-5.35186 27.22029,-2.09236 1.60341,0.5541 1.68343,-0.0832 0.61894,-4.93002 -1.43363,-6.52693 0.3607,-17.38468 3.89186,-23.54997 8.49785,-14.83702 28.65258,-18.75829 40.09893,-7.80143 l 3.51833,3.36781 -3.51833,0.007 c -5.15139,0.009 -12.6082,2.07981 -16.53439,4.5921 -1.88807,1.20812 -4.71285,4.67115 -6.27726,7.69561 -3.59975,6.95931 -3.79423,20.34368 -0.503,34.61449 13.41253,58.15672 13.03382,57.13784 23.24045,62.52238 10.64594,5.61636 24.41577,4.36566 33.38807,-3.03249 5.05738,-4.17005 8.71449,-13.73575 7.74333,-20.25372 -0.33836,-2.27089 -6.33597,-14.65243 -13.32799,-27.51455 -11.49623,-21.14812 -16.27382,-32.21572 -16.27382,-37.69964 0,-1.17229 1.41516,0.0646 3.56891,3.12337 4.29593,6.09795 10.21176,9.73692 13.3619,8.21933 1.17986,-0.56796 3.87044,-3.2909 5.97912,-6.04984 6.95063,-9.09416 5.75029,-20.01011 -3.7136,-33.77191 -5.9892,-8.70923 -6.1367,-12.16184 -0.86751,-20.30729 15.92682,-24.62044 15.39472,-46.48895 -1.5012,-61.69868 -10.22329,-9.203 -24.51847,-14.04828 -41.66259,-14.12127 -13.04336,-0.0554 -17.3297,1.83547 -23.77395,10.4884 -10.65731,14.30991 -10.32841,37.15046 0.67758,47.05809 7.56694,6.81174 13.94802,5.06955 29.36099,-8.01656 5.09131,-4.32267 10.069,-8.27978 11.06154,-8.79361 2.62848,-1.36071 4.11253,1.26409 3.46781,6.13349 -1.24697,9.41833 -12.37457,18.73237 -34.07061,28.51804 -12.93644,5.83485 -13.70139,6.0408 -16.77059,4.51499 -4.79227,-2.38235 -6.93613,-7.39307 -10.95196,-25.59728 -5.38985,-24.4326 -8.26763,-28.42378 -21.02162,-29.15483 -9.79958,-0.56177 -16.66023,2.19137 -21.71403,8.71359 -5.36183,6.91975 -6.42845,9.91907 -6.42845,18.07665 0,8.49109 2.74271,16.05871 11.45826,31.6154 7.67941,13.70733 13.11945,20.71862 22.51299,29.01572 l 8.24082,7.27882 h -6.18002 c -9.23852,0 -14.29121,-2.9467 -32.46701,-18.93441 -9.9012,-8.70924 -17.65568,-14.6598 -19.70833,-15.12358 -7.39254,-1.67025 -22.08678,9.63846 -26.86513,20.67539 -3.74464,8.64931 -4.70013,22.70367 -2.09251,30.77847 1.80815,5.59909 2.31394,6.12659 8.48081,8.84481 8.58849,3.7857 23.52752,6.88127 38.41695,7.96047 l 11.979,0.86809 -5.98949,3.22347 -5.98951,3.22357 h -19.76531 c -10.87094,0 -20.49416,0.42296 -21.38493,0.94039 -2.81936,1.637 -5.16189,8.35334 -5.12814,14.70286 0.0935,17.59302 11.15946,34.56702 24.48683,37.56009 17.42425,3.91314 25.47187,2.34504 33.2139,-6.47188 4.92009,-5.60314 11.38781,-10.83606 19.93979,-16.13279 l 5.10352,-3.16087 -3.64412,7.30894 c -7.54863,15.14004 -8.50793,25.73636 -4.07855,45.05116 3.91841,17.08667 12.49334,28.75158 23.27251,31.65876 14.28565,3.85292 29.466,-1.54198 40.95345,-14.55444 l 3.4619,-3.92155 v 3.852 c 0,11.40484 -6.94339,28.44452 -12.52324,30.73313 l -2.71206,1.11236 2.83338,9.84634 c 3.32441,11.5527 6.50865,17.56459 14.15004,26.71545 6.3578,7.61361 14.42752,14.33751 22.02319,18.3502 6.59013,3.4815 13.69183,5.72773 14.87193,4.70403 0.50019,-0.43405 2.3401,-5.61285 4.08867,-11.50864 z"
       id="path1-4"
       sodipodi:nodetypes="csccssscssssssssscssscsscsssssscssssssccssccssssssssscssssccscccsscsssscssscssscccssscssssssccssssscssccscscsccsscsssssssssssssccsccssccsssssscsccsscscsssssssscsssccssssscccccscsssscsssscsscssssss" /></g></svg>
